<svg id="Layer_1" data-name="Layer 1" xmlns="http://www.w3.org/2000/svg" width="183.61mm" height="38.1mm" viewBox="0 0 520.47 107.99">
  <title>GNL-logo</title>
  <g>
    <path d="M63.29,56.3c0,6.62-2,12-5.94,16-4.41,4.67-10.35,7-17.65,7a24.13,24.13,0,0,1-17.65-7.21,24.52,24.52,0,0,1-7.21-17.82,24.63,24.63,0,0,1,24.86-25,25.83,25.83,0,0,1,9.93,1.87,21.14,21.14,0,0,1,7.72,5.26l.08.17-4.67,4.67-.17-.17A14.51,14.51,0,0,0,47,37a17.91,17.91,0,0,0-7.38-1.44,17.54,17.54,0,0,0-13,5.35,18.5,18.5,0,0,0-5.26,13.41,18.36,18.36,0,0,0,5.26,13.41,17.54,17.54,0,0,0,13,5.35,18,18,0,0,0,11.71-3.9,15.49,15.49,0,0,0,5.35-10.61H39.53V52.49H63v.17A18.26,18.26,0,0,1,63.29,56.3Z" style="fill: #fff"/>
    <path d="M93.24,51.64a14.78,14.78,0,0,0-11.12-4.58,15,15,0,0,0-11.2,4.58,16.3,16.3,0,0,0-4.41,11.54,15.81,15.81,0,0,0,4.41,11.54,14.73,14.73,0,0,0,11.2,4.67A14.65,14.65,0,0,0,93.24,74.8a15.73,15.73,0,0,0,4.5-11.54A16.07,16.07,0,0,0,93.24,51.64ZM82.13,73.78a8.87,8.87,0,0,1-6.79-3,10.54,10.54,0,0,1-2.72-7.64,10.91,10.91,0,0,1,2.72-7.64,9.24,9.24,0,0,1,13.58,0,10.54,10.54,0,0,1,2.72,7.64,10.77,10.77,0,0,1-2.72,7.64A8.59,8.59,0,0,1,82.13,73.78Z" style="fill: #fff"/>
    <path d="M129,51.64a14.78,14.78,0,0,0-11.12-4.58,15,15,0,0,0-11.2,4.58,16.3,16.3,0,0,0-4.41,11.54,15.81,15.81,0,0,0,4.41,11.54,15,15,0,0,0,11.2,4.58A14.65,14.65,0,0,0,129,74.72a15.73,15.73,0,0,0,4.5-11.54A16.75,16.75,0,0,0,129,51.64ZM124.55,70.9a9.13,9.13,0,0,1-6.79,3,8.87,8.87,0,0,1-6.79-3,10.54,10.54,0,0,1-2.72-7.64A10.91,10.91,0,0,1,111,55.63a9.24,9.24,0,0,1,13.58,0,10.91,10.91,0,0,1,2.72,7.64A10.19,10.19,0,0,1,124.55,70.9Z" style="fill: #fff"/>
    <path d="M161.72,48.07v4.07a11.18,11.18,0,0,0-4.24-3.65,13.09,13.09,0,0,0-6-1.36,13.5,13.5,0,0,0-10.27,4.75,16.63,16.63,0,0,0-4.24,11.46,17,17,0,0,0,4.24,11.54,13.57,13.57,0,0,0,10.27,4.67,12.39,12.39,0,0,0,6-1.44,10.49,10.49,0,0,0,4.24-3.65V77a10.63,10.63,0,0,1-2.55,7.47A10,10,0,0,1,147,85.66,8.16,8.16,0,0,1,144,81.59l-.08-.17-5.69,2.38.08.17a11.22,11.22,0,0,0,2,3.56,12.4,12.4,0,0,0,3.14,2.8,14.94,14.94,0,0,0,4.07,1.87,16.91,16.91,0,0,0,4.75.68,15.1,15.1,0,0,0,11.12-4.24c2.72-2.72,4.16-6.62,4.16-11.46V48.33h-5.77Zm-16,7.55a8.64,8.64,0,0,1,6.62-3,8.52,8.52,0,0,1,6.62,3,11.06,11.06,0,0,1,2.72,7.64A10.77,10.77,0,0,1,159,70.9a8.32,8.32,0,0,1-6.62,2.88,8.64,8.64,0,0,1-6.62-3,10.91,10.91,0,0,1-2.72-7.64A10.84,10.84,0,0,1,145.77,55.63Z" style="fill: #fff"/>
    <rect x="173.09" y="30.59" width="6.02" height="47.77" style="fill: #fff"/>
    <path d="M208,68.52a8.51,8.51,0,0,1-4.67,4.24,9.31,9.31,0,0,1-12.22-5.18L213,58.93l-.25-.76c-1.87-4.84-4.67-8.15-8.23-9.84a14.19,14.19,0,0,0-11.62-.17,14,14,0,0,0-8.32,8.23,16.72,16.72,0,0,0,.34,12.3,16.16,16.16,0,0,0,8.32,9.16,14,14,0,0,0,6.11,1.36A17,17,0,0,0,212,73c.34-.42.59-.85.93-1.27l.08-.17-4.92-3.22Zm-2.8-12-15.53,6.11a8.88,8.88,0,0,1,.93-5.6,8.33,8.33,0,0,1,4.24-3.73,8.57,8.57,0,0,1,6.28-.34A7.06,7.06,0,0,1,205.16,56.56Z" style="fill: #fff"/>
    <path d="M245,78.2h-5.6V34.41h6.87l21.3,34h.25l-.25-8.4V34.41h5.6V78.2h-5.85L245,42.56h-.25L245,51V78.2Z" style="fill: #fff"/>
    <path d="M296,79.13a14.33,14.33,0,0,1-10.86-4.5,15.83,15.83,0,0,1-4.24-11.46,15.93,15.93,0,0,1,4.16-11.37,14.86,14.86,0,0,1,21.21-.25c2.63,2.88,3.9,6.87,3.9,12l-.08.59h-23.5a9.65,9.65,0,0,0,3,7.13A9.36,9.36,0,0,0,296.3,74q5.35,0,8.4-5.35l5,2.46a15.11,15.11,0,0,1-5.6,5.94A16,16,0,0,1,296,79.13Zm-9-19.52h17.14a7.59,7.59,0,0,0-2.55-5.18,8.86,8.86,0,0,0-6.11-2,8.2,8.2,0,0,0-5.43,2A8.52,8.52,0,0,0,287,59.61Z" style="fill: #fff"/>
    <path d="M359.43,48.24l-9.67,30H344l-7.47-23-7.38,23h-5.69l-9.67-30h5.85l6.62,22.57h.08l7.38-22.57h5.77l7.38,22.57H347l6.62-22.57Z" style="fill: #fff"/>
    <path d="M387.94,69.88a8.05,8.05,0,0,1-3.39,6.62,13.7,13.7,0,0,1-8.65,2.72,13.42,13.42,0,0,1-8-2.38A13.11,13.11,0,0,1,363,70.64l5-2.12a8.92,8.92,0,0,0,3.22,4.16,7.81,7.81,0,0,0,4.58,1.53A8.24,8.24,0,0,0,380.3,73a3.29,3.29,0,0,0,1.78-2.72c0-2-1.44-3.31-4.41-4.24l-5.09-1.27c-5.85-1.44-8.74-4.24-8.74-8.4a7.71,7.71,0,0,1,3.31-6.53,15.39,15.39,0,0,1,15.7-.59,10.43,10.43,0,0,1,4.5,5.09l-5,2a6.33,6.33,0,0,0-2.8-3,9.1,9.1,0,0,0-4.33-1.1,6.78,6.78,0,0,0-3.9,1.1,3.18,3.18,0,0,0-1.78,2.72c0,1.7,1.61,3,4.84,3.65l4.5,1.19C385,62.33,387.94,65.38,387.94,69.88Z" style="fill: #fff"/>
    <path d="M434.1,78.2H409.57V34.41h5.6V72.77H434.1Z" style="fill: #fff"/>
    <path d="M453.27,47.31c4.16,0,7.47,1.1,9.84,3.31s3.56,5.26,3.56,9.16V78.2h-5.35V74h-.17a10.71,10.71,0,0,1-9.25,5.09,12.32,12.32,0,0,1-8.32-3,9.39,9.39,0,0,1-3.31-7.3,9,9,0,0,1,3.48-7.38c2.38-1.87,5.43-2.72,9.42-2.72a16,16,0,0,1,8.23,1.87V59.36a6.48,6.48,0,0,0-2.29-5,8,8,0,0,0-5.43-2,8.73,8.73,0,0,0-7.47,4l-4.92-3.14C443.94,49.26,448,47.31,453.27,47.31ZM446.06,69a4.36,4.36,0,0,0,1.87,3.65,6.66,6.66,0,0,0,4.33,1.44,8.93,8.93,0,0,0,6.36-2.63,8.28,8.28,0,0,0,2.8-6.19,11.66,11.66,0,0,0-7.3-2,9.38,9.38,0,0,0-5.69,1.61A5,5,0,0,0,446.06,69Z" style="fill: #fff"/>
    <path d="M491.88,79.13a12.89,12.89,0,0,1-6-1.44A10.5,10.5,0,0,1,481.7,74h-.25v4.16H476.1V34.41h5.6V48.24l-.25,4.16h.25a11.1,11.1,0,0,1,4.16-3.73,12.89,12.89,0,0,1,6-1.44,12.66,12.66,0,0,1,10,4.67,16.36,16.36,0,0,1,4.24,11.29,16.21,16.21,0,0,1-4.24,11.29A12.78,12.78,0,0,1,491.88,79.13ZM490.95,74A8.79,8.79,0,0,0,497.74,71a10.88,10.88,0,0,0,2.72-7.72,11.28,11.28,0,0,0-2.72-7.72,8.79,8.79,0,0,0-6.79-3.05,9,9,0,0,0-6.87,3.05,11.28,11.28,0,0,0-2.72,7.72,11.5,11.5,0,0,0,2.72,7.81A9.18,9.18,0,0,0,490.95,74Z" style="fill: #fff"/>
  </g>
</svg>
