<?xml version="1.0" encoding="utf-8"?>
<!-- Generator: Adobe Illustrator 21.0.0, SVG Export Plug-In . SVG Version: 6.00 Build 0)  -->
<svg version="1.1" id="Layer_1" xmlns="http://www.w3.org/2000/svg" xmlns:xlink="http://www.w3.org/1999/xlink" x="0px" y="0px"
	 width="505.2px" height="73px" viewBox="0 0 505.2 73" style="enable-background:new 0 0 505.2 73;" xml:space="preserve">
<style type="text/css">
	.st0{fill:#FFFFFF;}
</style>
<title>GNL-logo</title>
<g>
	<path class="st0" d="M57.3,31.4c0,6.6-2,12-5.9,16c-4.4,4.7-10.4,7-17.6,7c-6.6,0.1-13-2.5-17.6-7.2c-4.7-4.7-7.3-11.1-7.2-17.8
		C8.6,15.8,19.5,4.6,33.1,4.4c0.2,0,0.4,0,0.6,0c3.4,0,6.8,0.6,9.9,1.9c2.9,1.2,5.6,3,7.7,5.3l0.1,0.2l-4.7,4.7l-0.2-0.2
		c-1.5-1.8-3.4-3.2-5.6-4.1c-2.3-1-4.8-1.5-7.4-1.4c-4.9-0.1-9.6,1.8-13,5.3c-3.5,3.6-5.4,8.4-5.3,13.4c-0.1,5,1.8,9.8,5.3,13.4
		c3.4,3.5,8.1,5.5,13,5.3c4.2,0.1,8.4-1.3,11.7-3.9c3.1-2.7,5-6.5,5.3-10.6H33.5v-6.1H57v0.2C57.2,29,57.3,30.2,57.3,31.4z"/>
	<path class="st0" d="M87.2,26.8c-2.9-3-6.9-4.7-11.1-4.6c-4.2-0.1-8.3,1.5-11.2,4.6c-2.9,3.1-4.5,7.3-4.4,11.5
		c-0.2,4.3,1.4,8.5,4.4,11.5c2.9,3.1,7,4.8,11.2,4.7c4.2,0.1,8.2-1.5,11.1-4.6c3-3.1,4.6-7.2,4.5-11.5
		C91.9,34.1,90.2,29.9,87.2,26.8z M76.1,48.9c-2.6,0-5.1-1.1-6.8-3c-1.9-2.1-2.9-4.8-2.7-7.6c-0.1-2.8,0.9-5.5,2.7-7.6
		c3.5-3.8,9.3-4,13.1-0.5c0.2,0.2,0.4,0.3,0.5,0.5c1.9,2.1,2.9,4.8,2.7,7.6c0.1,2.8-0.9,5.5-2.7,7.6C81.2,47.9,78.7,49,76.1,48.9z"
		/>
	<path class="st0" d="M123,26.8c-2.9-3-6.9-4.7-11.1-4.6c-4.2-0.1-8.3,1.5-11.2,4.6c-2.9,3.1-4.5,7.3-4.4,11.5
		c-0.2,4.3,1.4,8.5,4.4,11.5c2.9,3,7,4.7,11.2,4.6c4.2,0.1,8.2-1.5,11.1-4.6c3-3.1,4.6-7.2,4.5-11.5C127.5,34,125.9,29.9,123,26.8z
		 M118.6,46c-1.7,1.9-4.2,3-6.8,3c-2.6,0-5.1-1.1-6.8-3c-1.9-2.1-2.9-4.8-2.7-7.6c-0.1-2.8,0.9-5.5,2.8-7.6c3.5-3.8,9.3-4,13.1-0.5
		c0.2,0.2,0.4,0.3,0.5,0.5c1.9,2.1,2.8,4.8,2.7,7.6C121.5,41.2,120.5,44,118.6,46z"/>
	<path class="st0" d="M155.7,23.2v4.1c-1.1-1.6-2.5-2.8-4.2-3.7c-1.9-0.9-3.9-1.4-6-1.4c-4,0-7.7,1.7-10.3,4.8
		c-2.8,3.1-4.3,7.2-4.2,11.5c-0.1,4.2,1.4,8.4,4.2,11.5c2.6,3,6.3,4.7,10.3,4.7c2.1,0,4.2-0.5,6-1.4c1.7-0.8,3.2-2.1,4.2-3.7v2.5
		c0.1,2.7-0.8,5.4-2.6,7.5c-3.3,3.1-8.3,3.6-12.2,1.2c-1.4-1-2.5-2.4-3-4.1l-0.1-0.2l-5.7,2.4l0.1,0.2c0.4,1.3,1.1,2.5,2,3.6
		c0.9,1.1,1.9,2.1,3.1,2.8c1.3,0.8,2.6,1.5,4.1,1.9c1.5,0.5,3.1,0.7,4.8,0.7c4.1,0.2,8.2-1.4,11.1-4.2c2.7-2.7,4.2-6.6,4.2-11.5
		V23.4h-5.8L155.7,23.2z M139.7,30.7c1.7-1.9,4.1-3,6.6-3c2.5,0,5,1.1,6.6,3c1.8,2.1,2.8,4.8,2.7,7.6c0.1,2.8-0.8,5.5-2.7,7.6
		c-1.7,1.9-4.1,3-6.6,2.9c-2.5,0-5-1.1-6.6-3c-1.9-2.1-2.8-4.8-2.7-7.6C137,35.5,137.9,32.8,139.7,30.7L139.7,30.7z"/>
	<rect x="167.1" y="5.7" class="st0" width="6" height="47.8"/>
	<path class="st0" d="M202,43.6c-1,2-2.6,3.5-4.7,4.2c-4.8,2-10.2-0.3-12.2-5c0,0,0-0.1-0.1-0.1L207,34l-0.2-0.8
		c-1.9-4.8-4.7-8.1-8.2-9.8c-3.7-1.7-7.9-1.8-11.6-0.2c-3.8,1.4-6.9,4.4-8.3,8.2c-1.5,4-1.3,8.4,0.3,12.3c1.4,4,4.4,7.3,8.3,9.2
		c1.9,0.9,4,1.4,6.1,1.4c4.9-0.1,9.5-2.4,12.6-6.2c0.3-0.4,0.6-0.8,0.9-1.3l0.1-0.2l-4.9-3.2L202,43.6z M199.2,31.6l-15.5,6.1
		c-0.3-1.9,0-3.9,0.9-5.6c0.9-1.7,2.4-3,4.2-3.7c2-0.9,4.2-1,6.3-0.3C196.9,28.7,198.3,30,199.2,31.6L199.2,31.6z"/>
	<path class="st0" d="M239,53.3h-5.6V9.5h6.9l21.3,34h0.2l-0.2-8.4V9.5h5.6v43.8h-5.9L239,17.7h-0.2l0.2,8.4V53.3z"/>
	<path class="st0" d="M290,54.2c-4.1,0.1-8.1-1.5-10.9-4.5c-2.9-3.1-4.4-7.2-4.2-11.5c-0.2-4.2,1.3-8.3,4.2-11.4
		c5.7-5.9,15.1-6.1,21-0.4c0.1,0.1,0.1,0.1,0.2,0.2c2.6,2.9,3.9,6.9,3.9,12l-0.1,0.6h-23.5c0,2.7,1,5.3,3,7.1
		c1.8,1.8,4.2,2.8,6.7,2.7c3.6,0,6.4-1.8,8.4-5.3l5,2.5c-1.3,2.5-3.2,4.5-5.6,5.9C295.6,53.6,292.8,54.3,290,54.2z M281,34.7h17.1
		c-0.1-2-1.1-3.9-2.5-5.2c-1.7-1.4-3.9-2.1-6.1-2c-2,0-3.9,0.7-5.4,2C282.4,30.8,281.4,32.7,281,34.7z"/>
	<path class="st0" d="M353.4,23.4l-9.7,30H338l-7.5-23l-7.4,23h-5.7l-9.7-30h5.9l6.6,22.6h0.1l7.4-22.6h5.8l7.4,22.6h0.1l6.6-22.6
		L353.4,23.4z"/>
	<path class="st0" d="M381.9,45c0,2.6-1.2,5.1-3.4,6.6c-2.5,1.9-5.5,2.8-8.6,2.7c-2.9,0.1-5.7-0.8-8-2.4c-2.2-1.5-3.9-3.7-4.9-6.2
		l5-2.1c0.6,1.7,1.8,3.1,3.2,4.2c1.3,1,2.9,1.5,4.6,1.5c1.6,0,3.1-0.4,4.5-1.2c1-0.5,1.7-1.6,1.8-2.7c0-2-1.4-3.3-4.4-4.2l-5.1-1.3
		c-5.9-1.4-8.7-4.2-8.7-8.4c-0.1-2.6,1.2-5,3.3-6.5c4.7-3.1,10.8-3.3,15.7-0.6c2,1.1,3.6,2.9,4.5,5.1l-5,2c-0.6-1.3-1.6-2.3-2.8-3
		c-1.3-0.7-2.8-1.1-4.3-1.1c-1.4,0-2.7,0.3-3.9,1.1c-1,0.5-1.7,1.6-1.8,2.7c0,1.7,1.6,3,4.8,3.7l4.5,1.2
		C379,37.4,381.9,40.5,381.9,45z"/>
	<path class="st0" d="M428.1,53.3h-24.5V9.5h5.6v38.4h18.9V53.3z"/>
	<path class="st0" d="M447.3,22.4c4.2,0,7.5,1.1,9.8,3.3s3.6,5.3,3.6,9.2v18.4h-5.4v-4.2h-0.2c-2,3.2-5.5,5.1-9.2,5.1
		c-3,0.1-6-1-8.3-3c-2.1-1.8-3.4-4.5-3.3-7.3c-0.1-2.9,1.2-5.6,3.5-7.4c2.4-1.9,5.4-2.7,9.4-2.7c2.9-0.1,5.7,0.5,8.2,1.9v-1.2
		c0-1.9-0.8-3.8-2.3-5c-1.5-1.3-3.4-2-5.4-2c-3,0-5.8,1.5-7.5,4l-4.9-3.1C437.9,24.4,442,22.4,447.3,22.4z M440.1,44.1
		c0,1.5,0.7,2.8,1.9,3.7c1.2,1,2.8,1.5,4.3,1.4c2.4,0,4.7-0.9,6.4-2.6c1.8-1.6,2.8-3.8,2.8-6.2c-2.1-1.5-4.7-2.2-7.3-2
		c-2-0.1-4,0.5-5.7,1.6C441,40.9,440.1,42.4,440.1,44.1z"/>
	<path class="st0" d="M485.9,54.2c-2.1,0-4.1-0.5-6-1.4c-1.7-0.8-3.1-2.1-4.2-3.7h-0.2v4.2h-5.4V9.5h5.6v13.8l-0.2,4.2h0.2
		c1-1.6,2.5-2.9,4.2-3.7c1.9-1,3.9-1.5,6-1.4c3.9-0.1,7.6,1.7,10,4.7c2.8,3.1,4.3,7.1,4.2,11.3c0.1,4.2-1.4,8.2-4.2,11.3
		C493.4,52.6,489.7,54.3,485.9,54.2z M485,49.1c2.6,0.1,5.1-1,6.8-3c1.9-2.1,2.9-4.9,2.7-7.7c0.1-2.8-0.9-5.6-2.7-7.7
		c-1.7-2-4.2-3.1-6.8-3c-2.6,0-5.1,1.1-6.9,3c-1.8,2.1-2.8,4.9-2.7,7.7c-0.1,2.9,0.9,5.6,2.7,7.8C479.9,48.1,482.4,49.2,485,49.1z"
		/>
</g>
</svg>
