<?xml version="1.0" encoding="utf-8"?>
<!-- Generator: Adobe Illustrator 21.0.0, SVG Export Plug-In . SVG Version: 6.00 Build 0)  -->
<svg version="1.1" id="Layer_1" xmlns="http://www.w3.org/2000/svg" xmlns:xlink="http://www.w3.org/1999/xlink" x="0px" y="0px"
	 width="609.96px" height="77.56px" viewBox="0 0 609.96 77.56" style="enable-background:new 0 0 609.96 77.56;"
	 xml:space="preserve">
<g>
	<path style="fill:#FFFFFF;" d="M35.79,69.22L15.05,12.77l-5.76-1.01v-1.58h21.1v1.58l-6.77,0.86l15.84,43.13L55.01,15l-8.28-3.24
		v-1.58h15.48v1.58l-5.26,3.17L36.36,69.22H35.79z"/>
	<path style="fill:#FFFFFF;" d="M62.43,67.78v-1.44l5.04-0.72v-32.9L62.43,32v-1.44h12.24v35.06l5.04,0.72v1.44H62.43z M66.6,20.73
		c-0.96-0.94-1.44-2.08-1.44-3.42s0.47-2.47,1.4-3.38c0.94-0.91,2.1-1.37,3.49-1.37c1.3,0,2.4,0.46,3.31,1.37
		c0.91,0.91,1.37,2.04,1.37,3.38s-0.46,2.48-1.37,3.42c-0.91,0.94-2.02,1.4-3.31,1.4C68.71,22.13,67.56,21.66,66.6,20.73z"/>
	<path style="fill:#FFFFFF;" d="M88.63,65.98c-2.64-1.68-3.96-3.86-3.96-6.55c0-1.39,0.37-2.48,1.12-3.28
		c0.74-0.79,1.74-1.19,2.99-1.19c0.96,0,1.78,0.24,2.45,0.72c0.67,0.48,1.15,1.15,1.44,2.02c-1.06,1.15-1.58,2.38-1.58,3.67
		c0,1.49,0.67,2.78,2.02,3.89c1.34,1.1,3.14,1.66,5.4,1.66c3.02,0,5.5-0.68,7.42-2.05c1.92-1.37,2.88-3.2,2.88-5.51
		c0-1.34-0.41-2.35-1.22-3.02c-0.82-0.67-2.4-1.44-4.75-2.3l-10.87-3.96c-4.27-1.54-6.41-4.39-6.41-8.57c0-3.41,1.18-6.2,3.53-8.39
		c2.35-2.18,5.59-3.28,9.72-3.28c3.41,0,6.32,0.78,8.75,2.34c2.42,1.56,3.64,3.78,3.64,6.66c0,1.15-0.31,2.08-0.94,2.77
		c-0.62,0.7-1.44,1.04-2.45,1.04c-1.01,0-1.84-0.28-2.48-0.83c-0.65-0.55-0.97-1.31-0.97-2.27c0.62-0.48,1.06-1,1.3-1.55
		c0.24-0.55,0.36-1.21,0.36-1.98c0-1.34-0.59-2.45-1.76-3.31c-1.18-0.86-2.99-1.3-5.44-1.3c-2.11,0-3.92,0.32-5.44,0.97
		c-1.51,0.65-2.65,1.5-3.42,2.56c-0.77,1.06-1.15,2.14-1.15,3.24c0,1.15,0.42,2.06,1.26,2.74c0.84,0.67,2.39,1.42,4.64,2.23
		l10.08,3.6c2.35,0.86,4.13,2.06,5.33,3.6c1.2,1.54,1.8,3.53,1.8,5.98c0,3.5-1.1,6.41-3.31,8.71c-2.21,2.3-5.57,3.46-10.08,3.46
		C94.56,68.5,91.27,67.66,88.63,65.98z"/>
	<path style="fill:#FFFFFF;" d="M124.74,65.91c-1.99-1.73-2.99-4.29-2.99-7.7V32.65l-5.04-0.72v-1.44h12.24v27.58
		c0,2.45,0.5,4.37,1.51,5.76c1.01,1.39,2.57,2.09,4.68,2.09c2.21,0,4.33-0.73,6.37-2.2c2.04-1.46,3.85-3.28,5.44-5.44V32.65
		l-5.04-0.72v-1.44h12.24v35.14l5.04,0.72v1.44h-12.24v-6.91c-1.73,2.4-3.8,4.27-6.23,5.62c-2.42,1.34-5.03,2.02-7.81,2.02
		C129.46,68.5,126.73,67.64,124.74,65.91z"/>
	<path style="fill:#FFFFFF;" d="M167.26,66.09c-1.97-1.61-2.95-4-2.95-7.16c0-4.51,1.9-7.71,5.69-9.61
		c3.79-1.9,8.18-2.84,13.18-2.84h4.82v-5.54c0-2.5-0.28-4.43-0.83-5.8c-0.55-1.37-1.4-2.33-2.56-2.88
		c-1.15-0.55-2.71-0.83-4.68-0.83c-2.26,0-3.94,0.44-5.04,1.33c-1.1,0.89-1.66,2.08-1.66,3.56c0,1.39,0.67,2.3,2.02,2.74
		c0,1.2-0.46,2.26-1.37,3.17c-0.91,0.91-1.99,1.37-3.24,1.37c-1.34,0-2.42-0.37-3.24-1.12c-0.82-0.74-1.22-1.88-1.22-3.42
		c0-2.78,1.39-5.02,4.18-6.7c2.78-1.68,6.26-2.52,10.44-2.52c9.6,0,14.4,4.18,14.4,12.53v20.59c0,1.06,0.23,1.86,0.68,2.41
		c0.46,0.55,1.12,0.83,1.98,0.83c0.82,0,1.46-0.28,1.94-0.83c0.48-0.55,0.72-1.31,0.72-2.27h1.51c0,1.68-0.54,3-1.62,3.96
		c-1.08,0.96-2.58,1.44-4.5,1.44c-2.21,0-4.07-0.64-5.58-1.91c-1.51-1.27-2.29-3.25-2.34-5.94c-1.15,2.45-2.92,4.37-5.29,5.76
		s-5,2.09-7.88,2.09C171.74,68.5,169.22,67.7,167.26,66.09z M182.77,64.18c1.37-0.77,2.53-1.88,3.49-3.35
		c0.96-1.46,1.54-3.23,1.73-5.29v-7.49h-4.82c-3.94,0-6.88,0.88-8.82,2.63s-2.92,4.21-2.92,7.38c0,2.64,0.62,4.51,1.87,5.62
		c1.25,1.1,3.07,1.66,5.47,1.66C180.07,65.33,181.41,64.95,182.77,64.18z"/>
	<path style="fill:#FFFFFF;" d="M203.26,67.78v-1.44l5.4-0.72V12.34l-5.4-0.72v-1.44h12.6v55.44l5.04,0.72v1.44H203.26z"/>
	<path style="fill:#FFFFFF;" d="M255.82,65.4c-3.94-2.54-6.97-6.1-9.11-10.66c-2.14-4.56-3.2-9.82-3.2-15.77
		c0-5.95,1.09-11.22,3.28-15.8c2.18-4.58,5.28-8.14,9.29-10.66c4.01-2.52,8.63-3.78,13.86-3.78c2.06,0,4.16,0.36,6.3,1.08
		s4.07,1.73,5.8,3.02l4.82-4.1h1.51V26.6h-1.51l-4.46-11.16c-1.68-1.54-3.64-2.76-5.87-3.67c-2.23-0.91-4.43-1.37-6.59-1.37
		c-3.36,0-6.32,0.86-8.89,2.59c-2.57,1.73-4.57,4.25-6.01,7.56c-1.44,3.31-2.16,7.25-2.16,11.81v13.18c0,4.56,0.7,8.5,2.09,11.81
		c1.39,3.31,3.33,5.84,5.83,7.6c2.5,1.75,5.42,2.63,8.78,2.63c2.45,0,4.9-0.54,7.34-1.62s4.49-2.53,6.12-4.36L287.21,50h1.51v18.5
		h-1.51l-5.18-3.67c-1.73,1.39-3.7,2.47-5.9,3.24c-2.21,0.77-4.39,1.15-6.55,1.15C264.34,69.22,259.75,67.95,255.82,65.4z"/>
	<path style="fill:#FFFFFF;" d="M295.27,67.78v-1.44l5.04-0.72v-32.9L295.27,32v-1.44h12.24v35.06l5.04,0.72v1.44H295.27z
		 M299.45,20.73c-0.96-0.94-1.44-2.08-1.44-3.42s0.47-2.47,1.4-3.38c0.94-0.91,2.1-1.37,3.49-1.37c1.3,0,2.4,0.46,3.31,1.37
		c0.91,0.91,1.37,2.04,1.37,3.38s-0.46,2.48-1.37,3.42c-0.91,0.94-2.02,1.4-3.31,1.4C301.56,22.13,300.41,21.66,299.45,20.73z"/>
	<path style="fill:#FFFFFF;" d="M316.01,66.34l5.04-0.72V32.65l-5.04-0.72v-1.44h12.24v7.78c1.78-2.59,3.86-4.64,6.26-6.16
		c2.4-1.51,4.99-2.27,7.78-2.27c3.46,0,6.18,0.86,8.17,2.59c1.99,1.73,2.99,4.3,2.99,7.7v25.49l5.04,0.72v1.44h-16.56v-1.44
		l4.32-0.72V40.28c0-2.5-0.5-4.43-1.51-5.8c-1.01-1.37-2.57-2.05-4.68-2.05c-2.21,0-4.33,0.8-6.37,2.41
		c-2.04,1.61-3.85,3.59-5.44,5.94v24.84l4.32,0.72v1.44h-16.56V66.34z"/>
	<path style="fill:#FFFFFF;" d="M361.73,66.34l5.04-0.72V32.65l-5.04-0.72v-1.44h12.24v7.78c1.78-2.59,3.86-4.64,6.26-6.16
		c2.4-1.51,4.99-2.27,7.78-2.27c3.46,0,6.18,0.86,8.17,2.59c1.99,1.73,2.99,4.3,2.99,7.7v25.49l5.04,0.72v1.44h-16.56v-1.44
		l4.32-0.72V40.28c0-2.5-0.5-4.43-1.51-5.8c-1.01-1.37-2.57-2.05-4.68-2.05c-2.21,0-4.33,0.8-6.37,2.41
		c-2.04,1.61-3.85,3.59-5.44,5.94v24.84l4.32,0.72v1.44h-16.56V66.34z"/>
	<path style="fill:#FFFFFF;" d="M411.77,66.09c-1.97-1.61-2.95-4-2.95-7.16c0-4.51,1.9-7.71,5.69-9.61
		c3.79-1.9,8.18-2.84,13.18-2.84h4.82v-5.54c0-2.5-0.28-4.43-0.83-5.8c-0.55-1.37-1.4-2.33-2.56-2.88
		c-1.15-0.55-2.71-0.83-4.68-0.83c-2.26,0-3.94,0.44-5.04,1.33c-1.11,0.89-1.66,2.08-1.66,3.56c0,1.39,0.67,2.3,2.02,2.74
		c0,1.2-0.46,2.26-1.37,3.17c-0.91,0.91-1.99,1.37-3.24,1.37c-1.34,0-2.42-0.37-3.24-1.12c-0.82-0.74-1.22-1.88-1.22-3.42
		c0-2.78,1.39-5.02,4.18-6.7c2.78-1.68,6.26-2.52,10.44-2.52c9.6,0,14.4,4.18,14.4,12.53v20.59c0,1.06,0.23,1.86,0.68,2.41
		c0.46,0.55,1.12,0.83,1.98,0.83c0.82,0,1.46-0.28,1.94-0.83c0.48-0.55,0.72-1.31,0.72-2.27h1.51c0,1.68-0.54,3-1.62,3.96
		c-1.08,0.96-2.58,1.44-4.5,1.44c-2.21,0-4.07-0.64-5.58-1.91c-1.51-1.27-2.29-3.25-2.34-5.94c-1.15,2.45-2.92,4.37-5.29,5.76
		s-5,2.09-7.88,2.09C416.25,68.5,413.73,67.7,411.77,66.09z M427.28,64.18c1.37-0.77,2.53-1.88,3.49-3.35
		c0.96-1.46,1.54-3.23,1.73-5.29v-7.49h-4.82c-3.94,0-6.88,0.88-8.82,2.63c-1.94,1.75-2.92,4.21-2.92,7.38
		c0,2.64,0.62,4.51,1.87,5.62c1.25,1.1,3.07,1.66,5.47,1.66C424.58,65.33,425.91,64.95,427.28,64.18z"/>
	<path style="fill:#FFFFFF;" d="M448.27,66.34l5.04-0.72V32.65l-5.04-0.72v-1.44h12.24v6.62c1.73-2.26,3.68-4.03,5.87-5.33
		c2.18-1.3,4.55-1.94,7.09-1.94c2.93,0,5.32,0.64,7.16,1.91c1.85,1.27,3.01,3.18,3.49,5.72c1.73-2.35,3.7-4.21,5.9-5.58
		c2.21-1.37,4.63-2.05,7.27-2.05c3.41,0,6.06,0.85,7.96,2.56c1.9,1.7,2.84,4.28,2.84,7.74v25.49l5.04,0.72v1.44h-16.56v-1.44
		l4.32-0.72V40.28c0-2.54-0.46-4.49-1.37-5.83c-0.91-1.34-2.4-2.02-4.46-2.02c-1.97,0-3.88,0.67-5.72,2.02
		c-1.85,1.34-3.52,3.07-5,5.18v25.99l4.32,0.72v1.44h-15.91v-1.44l4.32-0.72V40.28c0-2.54-0.46-4.49-1.37-5.83
		c-0.91-1.34-2.4-2.02-4.46-2.02c-1.97,0-3.88,0.67-5.72,2.02c-1.85,1.34-3.52,3.07-5,5.18v25.99l4.32,0.72v1.44h-16.56V66.34z"/>
	<path style="fill:#FFFFFF;" d="M526.75,66.09c-2.83-1.61-5.08-3.89-6.73-6.84s-2.48-6.32-2.48-10.12c0-3.79,0.83-7.15,2.48-10.08
		s3.9-5.2,6.73-6.8c2.83-1.61,5.98-2.41,9.43-2.41s6.6,0.8,9.43,2.41c2.83,1.61,5.08,3.88,6.73,6.8s2.48,6.29,2.48,10.08
		c0,3.79-0.83,7.16-2.48,10.12s-3.9,5.23-6.73,6.84c-2.83,1.61-5.98,2.41-9.43,2.41S529.58,67.7,526.75,66.09z M544.21,63.03
		c1.8-2.59,2.7-6.02,2.7-10.3v-7.2c0-4.27-0.9-7.69-2.7-10.26c-1.8-2.57-4.48-3.85-8.03-3.85c-3.55,0-6.23,1.29-8.03,3.85
		c-1.8,2.57-2.7,5.99-2.7,10.26v7.2c0,4.27,0.9,7.7,2.7,10.3c1.8,2.59,4.48,3.89,8.03,3.89C539.73,66.92,542.41,65.62,544.21,63.03z
		"/>
	<path style="fill:#FFFFFF;" d="M559.87,66.34l5.04-0.72V32.65l-5.04-0.72v-1.44h12.24v7.78c1.78-2.59,3.86-4.64,6.26-6.16
		c2.4-1.51,4.99-2.27,7.78-2.27c3.46,0,6.18,0.86,8.17,2.59c1.99,1.73,2.99,4.3,2.99,7.7v25.49l5.04,0.72v1.44h-16.56v-1.44
		l4.32-0.72V40.28c0-2.5-0.5-4.43-1.51-5.8s-2.57-2.05-4.68-2.05c-2.21,0-4.33,0.8-6.37,2.41c-2.04,1.61-3.85,3.59-5.44,5.94v24.84
		l4.32,0.72v1.44h-16.56V66.34z"/>
</g>
</svg>
